<svg width="287" height="309" viewBox="0 0 287 309" fill="none" xmlns="http://www.w3.org/2000/svg">
<rect width="287" height="309" fill="#F5F5F5"/>
<g clip-path="url(#clip0_0_1)">
<rect width="287" height="309" fill="white"/>
<path d="M213.457 197.76L248.578 49.7009H287V26.4282H231.789L223.509 61.3304L0 61.1583L23.7624 197.758H213.457V197.76Z" fill="#F6E17A"/>
<path d="M183.867 282.572C202.927 282.572 218.434 265.876 218.434 245.355C218.434 224.834 202.927 208.139 183.867 208.139H53.6316C34.5712 208.139 19.0641 224.834 19.0641 245.355C19.0641 265.876 34.5709 282.572 53.6316 282.572C72.6922 282.572 88.1986 265.876 88.1986 245.355C88.1986 240.427 87.3019 235.72 85.6788 231.411H151.82C150.196 235.72 149.299 240.427 149.299 245.355C149.3 265.876 164.806 282.572 183.867 282.572ZM66.5829 245.355C66.5829 253.044 60.773 259.299 53.6316 259.299C46.4901 259.299 40.6799 253.044 40.6799 245.355C40.6799 237.666 46.4898 231.411 53.6316 231.411C60.773 231.411 66.5829 237.666 66.5829 245.355ZM196.818 245.355C196.818 253.044 191.009 259.299 183.867 259.299C176.726 259.299 170.916 253.044 170.916 245.355C170.916 237.666 176.726 231.411 183.867 231.411C191.009 231.411 196.818 237.666 196.818 245.355Z" fill="#F6E17A"/>
<rect x="105" y="82" width="29" height="92" fill="black"/>
<rect x="165" y="113" width="29" height="92" transform="rotate(90 165 113)" fill="black"/>
</g>
<defs>
<clipPath id="clip0_0_1">
<rect width="287" height="309" fill="white"/>
</clipPath>
</defs>
</svg>
